<?xml version="1.0" encoding="UTF-8" standalone="no"?><!DOCTYPE svg PUBLIC "-//W3C//DTD SVG 1.1//EN" "http://www.w3.org/Graphics/SVG/1.1/DTD/svg11.dtd"><svg width="769" height="576" version="1.1" xmlns="http://www.w3.org/2000/svg" xmlns:xlink="http://www.w3.org/1999/xlink" xml:space="preserve" xmlns:serif="http://www.serif.com/" style="fill-rule:evenodd;clip-rule:evenodd;stroke-linejoin:round;stroke-miterlimit:2;"><g id="g9394"><rect id="rect9392" x="0" y="0" width="768" height="576" style="fill:#bfbfbf;"/><g id="g4178"><g id="g4138"><g id="g3817"><rect id="rect3717" x="20" y="-0" width="40" height="7"/><rect id="rect3801" x="708" y="-0" width="40" height="7"/><rect id="rect3803" x="622" y="-0" width="40" height="7"/><rect id="rect3805" x="536" y="-0" width="40" height="7"/><rect id="rect3807" x="450" y="-0" width="40" height="7"/><rect id="rect3809" x="364" y="-0" width="40" height="7"/><rect id="rect3811" x="278" y="-0" width="40" height="7"/><rect id="rect3813" x="192" y="-0" width="40" height="7"/><rect id="rect3815" x="106" y="-0" width="40" height="7"/></g><g id="g3828"><rect id="rect3830" x="20" y="569" width="40" height="7"/><rect id="rect3832" x="708" y="569" width="40" height="7"/><rect id="rect3834" x="622" y="569" width="40" height="7"/><rect id="rect3836" x="536" y="569" width="40" height="7"/><rect id="rect3838" x="450" y="569" width="40" height="7"/><rect id="rect3840" x="364" y="569" width="40" height="7"/><rect id="rect3842" x="278" y="569" width="40" height="7"/><rect id="rect3844" x="192" y="569" width="40" height="7"/><rect id="rect3846" x="106" y="569" width="40" height="7"/></g></g><g id="g4160"><g id="g3876"><rect id="rect3551" x="-0" y="10" width="17" height="40"/><rect id="rect3864" x="-0" y="526" width="17" height="40"/><rect id="rect3866" x="-0" y="440" width="17" height="40"/><rect id="rect3868" x="-0" y="354" width="17" height="40"/><rect id="rect3870" x="-0" y="268" width="17" height="40"/><rect id="rect3872" x="-0" y="182" width="17" height="40"/><rect id="rect3874" x="-0" y="96" width="17" height="40"/></g><g id="g3885"><rect id="rect3887" x="751" y="10" width="17" height="40"/><rect id="rect3889" x="751" y="526" width="17" height="40"/><rect id="rect3891" x="751" y="440" width="17" height="40"/><rect id="rect3893" x="751" y="354" width="17" height="40"/><rect id="rect3895" x="751" y="268" width="17" height="40"/><rect id="rect3897" x="751" y="182" width="17" height="40"/><rect id="rect3899" x="751" y="96" width="17" height="40"/></g></g></g></g><g id="g11308"><rect id="rect9441" x="20" y="10" width="40" height="40"/><rect id="rect9443" x="708" y="10" width="40" height="40"/><rect id="rect9445" x="665" y="10" width="40" height="40"/><rect id="rect9447" x="622" y="10" width="40" height="40"/><rect id="rect9449" x="579" y="10" width="40" height="40"/><rect id="rect9451" x="536" y="10" width="40" height="40"/><rect id="rect9453" x="493" y="10" width="40" height="40"/><rect id="rect9455" x="450" y="10" width="40" height="40"/><rect id="rect9457" x="407" y="10" width="40" height="40"/><rect id="rect9459" x="364" y="10" width="40" height="40"/><rect id="rect9461" x="321" y="10" width="40" height="40"/><rect id="rect9463" x="278" y="10" width="40" height="40"/><rect id="rect9465" x="235" y="10" width="40" height="40"/><rect id="rect9467" x="192" y="10" width="40" height="40"/><rect id="rect9469" x="149" y="10" width="40" height="40"/><rect id="rect9471" x="106" y="10" width="40" height="40"/><rect id="rect9473" x="63" y="10" width="40" height="40"/><rect id="rect9475" x="450" y="53" width="40" height="40"/><rect id="rect9477" x="708" y="483" width="40" height="40"/><rect id="rect9479" x="235" y="483" width="40" height="40"/><rect id="rect9481" x="493" y="440" width="40" height="40"/><rect id="rect9483" x="20" y="440" width="40" height="40"/><rect id="rect9485" x="278" y="397" width="40" height="40"/><rect id="rect9487" x="536" y="354" width="40" height="40"/><rect id="rect9489" x="321" y="311" width="40" height="40"/><rect id="rect9491" x="579" y="268" width="40" height="40"/><rect id="rect9493" x="106" y="268" width="40" height="40"/><rect id="rect9495" x="364" y="225" width="40" height="40"/><rect id="rect9497" x="622" y="182" width="40" height="40"/><rect id="rect9499" x="149" y="182" width="40" height="40"/><rect id="rect9505" x="407" y="53" width="40" height="40"/><rect id="rect9507" x="192" y="483" width="40" height="40"/><rect id="rect9509" x="450" y="440" width="40" height="40"/><rect id="rect9511" x="708" y="397" width="40" height="40"/><rect id="rect9513" x="235" y="397" width="40" height="40"/><rect id="rect9515" x="493" y="354" width="40" height="40"/><rect id="rect9517" x="20" y="354" width="40" height="40"/><rect id="rect9519" x="278" y="311" width="40" height="40"/><rect id="rect9521" x="536" y="268" width="40" height="40"/><rect id="rect9523" x="321" y="225" width="40" height="40"/><rect id="rect9525" x="579" y="182" width="40" height="40"/><rect id="rect9527" x="106" y="182" width="40" height="40"/><rect id="rect9531" x="149" y="96" width="40" height="40"/><rect id="rect9533" x="364" y="53" width="40" height="40"/><rect id="rect9535" x="149" y="483" width="40" height="40"/><rect id="rect9537" x="407" y="440" width="40" height="40"/><rect id="rect9539" x="192" y="397" width="40" height="40"/><rect id="rect9541" x="450" y="354" width="40" height="40"/><rect id="rect9543" x="708" y="311" width="40" height="40"/><rect id="rect9545" x="235" y="311" width="40" height="40"/><rect id="rect9547" x="493" y="268" width="40" height="40"/><rect id="rect9549" x="20" y="268" width="40" height="40"/><rect id="rect9551" x="278" y="225" width="40" height="40"/><rect id="rect9553" x="536" y="182" width="40" height="40"/><rect id="rect9557" x="579" y="96" width="40" height="40"/><rect id="rect9559" x="321" y="53" width="40" height="40"/><rect id="rect9561" x="579" y="483" width="40" height="40"/><rect id="rect9563" x="364" y="440" width="40" height="40"/><rect id="rect9565" x="622" y="397" width="40" height="40"/><rect id="rect9567" x="149" y="397" width="40" height="40"/><rect id="rect9569" x="407" y="354" width="40" height="40"/><rect id="rect9571" x="192" y="311" width="40" height="40"/><rect id="rect9573" x="450" y="268" width="40" height="40"/><rect id="rect9575" x="708" y="225" width="40" height="40"/><rect id="rect9577" x="235" y="225" width="40" height="40"/><rect id="rect9579" x="493" y="182" width="40" height="40"/><rect id="rect9581" x="20" y="182" width="40" height="40"/><rect id="rect9587" x="278" y="53" width="40" height="40"/><rect id="rect9589" x="536" y="483" width="40" height="40"/><rect id="rect9591" x="321" y="440" width="40" height="40"/><rect id="rect9593" x="579" y="397" width="40" height="40"/><rect id="rect9595" x="106" y="397" width="40" height="40"/><rect id="rect9597" x="364" y="354" width="40" height="40"/><rect id="rect9599" x="622" y="311" width="40" height="40"/><rect id="rect9601" x="149" y="311" width="40" height="40"/><rect id="rect9603" x="407" y="268" width="40" height="40"/><rect id="rect9605" x="192" y="225" width="40" height="40"/><rect id="rect9607" x="450" y="182" width="40" height="40"/><rect id="rect9609" x="708" y="139" width="40" height="40"/><rect id="rect9615" x="20" y="96" width="40" height="40"/><rect id="rect9617" x="235" y="53" width="40" height="40"/><rect id="rect9619" x="493" y="483" width="40" height="40"/><rect id="rect9621" x="20" y="483" width="40" height="40"/><rect id="rect9623" x="278" y="440" width="40" height="40"/><rect id="rect9625" x="536" y="397" width="40" height="40"/><rect id="rect9627" x="321" y="354" width="40" height="40"/><rect id="rect9629" x="579" y="311" width="40" height="40"/><rect id="rect9631" x="106" y="311" width="40" height="40"/><rect id="rect9633" x="364" y="268" width="40" height="40"/><rect id="rect9635" x="622" y="225" width="40" height="40"/><rect id="rect9637" x="149" y="225" width="40" height="40"/><rect id="rect9639" x="407" y="182" width="40" height="40"/><rect id="rect9645" x="708" y="53" width="40" height="40"/><rect id="rect9647" x="192" y="53" width="40" height="40"/><rect id="rect9649" x="450" y="483" width="40" height="40"/><rect id="rect9651" x="708" y="440" width="40" height="40"/><rect id="rect9653" x="235" y="440" width="40" height="40"/><rect id="rect9655" x="493" y="397" width="40" height="40"/><rect id="rect9657" x="20" y="397" width="40" height="40"/><rect id="rect9659" x="278" y="354" width="40" height="40"/><rect id="rect9661" x="536" y="311" width="40" height="40"/><rect id="rect9663" x="321" y="268" width="40" height="40"/><rect id="rect9665" x="579" y="225" width="40" height="40"/><rect id="rect9667" x="106" y="225" width="40" height="40"/><rect id="rect9669" x="364" y="182" width="40" height="40"/><rect id="rect9671" x="622" y="139" width="40" height="40"/><rect id="rect9673" x="149" y="139" width="40" height="40"/><rect id="rect9677" x="149" y="53" width="40" height="40"/><rect id="rect96771" serif:id="rect9677" x="106" y="53" width="40" height="40"/><rect id="rect96772" serif:id="rect9677" x="106" y="96" width="40" height="40"/><rect id="rect96773" serif:id="rect9677" x="622" y="53" width="40" height="40"/><rect id="rect96774" serif:id="rect9677" x="622" y="96" width="40" height="40"/><rect id="rect96775" serif:id="rect9677" x="665" y="53" width="40" height="40"/><rect id="rect96776" serif:id="rect9677" x="149" y="53" width="40" height="40"/><rect id="rect9679" x="407" y="483" width="40" height="40"/><rect id="rect9681" x="192" y="440" width="40" height="40"/><rect id="rect9683" x="450" y="397" width="40" height="40"/><rect id="rect9685" x="708" y="354" width="40" height="40"/><rect id="rect9687" x="235" y="354" width="40" height="40"/><rect id="rect9689" x="493" y="311" width="40" height="40"/><rect id="rect9691" x="20" y="311" width="40" height="40"/><rect id="rect9693" x="278" y="268" width="40" height="40"/><rect id="rect9695" x="536" y="225" width="40" height="40"/><rect id="rect9697" x="321" y="182" width="40" height="40"/><rect id="rect9699" x="579" y="139" width="40" height="40"/><rect id="rect9701" x="106" y="139" width="40" height="40"/><rect id="rect9705" x="364" y="483" width="40" height="40"/><rect id="rect9707" x="149" y="440" width="40" height="40"/><rect id="rect9709" x="407" y="397" width="40" height="40"/><rect id="rect9711" x="192" y="354" width="40" height="40"/><rect id="rect9713" x="450" y="311" width="40" height="40"/><rect id="rect9715" x="708" y="268" width="40" height="40"/><rect id="rect9717" x="235" y="268" width="40" height="40"/><rect id="rect9719" x="493" y="225" width="40" height="40"/><rect id="rect9721" x="20" y="225" width="40" height="40"/><rect id="rect9723" x="278" y="182" width="40" height="40"/><rect id="rect9729" x="579" y="53" width="40" height="40"/><rect id="rect9731" x="321" y="483" width="40" height="40"/><rect id="rect9733" x="579" y="440" width="40" height="40"/><rect id="rect9735" x="364" y="397" width="40" height="40"/><rect id="rect9737" x="622" y="354" width="40" height="40"/><rect id="rect9739" x="149" y="354" width="40" height="40"/><rect id="rect9741" x="407" y="311" width="40" height="40"/><rect id="rect9743" x="192" y="268" width="40" height="40"/><rect id="rect9745" x="450" y="225" width="40" height="40"/><rect id="rect9747" x="708" y="182" width="40" height="40"/><rect id="rect9749" x="235" y="182" width="40" height="40"/><rect id="rect9753" x="20" y="139" width="40" height="40"/><rect id="rect9757" x="536" y="53" width="40" height="40"/><rect id="rect9759" x="20" y="53" width="40" height="40"/><rect id="rect94831" serif:id="rect9483" x="63" y="440" width="40" height="40"/><rect id="rect95171" serif:id="rect9517" x="63" y="354" width="40" height="40"/><rect id="rect95491" serif:id="rect9549" x="63" y="268" width="40" height="40"/><rect id="rect95811" serif:id="rect9581" x="63" y="182" width="40" height="40"/><rect id="rect96151" serif:id="rect9615" x="63" y="96" width="40" height="40"/><rect id="rect96211" serif:id="rect9621" x="63" y="483" width="40" height="40"/><rect id="rect96571" serif:id="rect9657" x="63" y="397" width="40" height="40"/><rect id="rect96911" serif:id="rect9691" x="63" y="311" width="40" height="40"/><rect id="rect97211" serif:id="rect9721" x="63" y="225" width="40" height="40"/><rect id="rect97531" serif:id="rect9753" x="63" y="139" width="40" height="40"/><rect id="rect97591" serif:id="rect9759" x="63" y="53" width="40" height="40"/><rect id="rect94832" serif:id="rect9483" x="665" y="440" width="40" height="40"/><rect id="rect95172" serif:id="rect9517" x="665" y="354" width="40" height="40"/><rect id="rect95492" serif:id="rect9549" x="665" y="268" width="40" height="40"/><rect id="rect95812" serif:id="rect9581" x="665" y="182" width="40" height="40"/><rect id="rect96152" serif:id="rect9615" x="665" y="96" width="40" height="40"/><rect id="rect96212" serif:id="rect9621" x="665" y="483" width="40" height="40"/><rect id="rect94833" serif:id="rect9483" x="622" y="440" width="40" height="40"/><rect id="rect96213" serif:id="rect9621" x="622" y="483" width="40" height="40"/><rect id="rect94834" serif:id="rect9483" x="106" y="440" width="40" height="40"/><rect id="rect96214" serif:id="rect9621" x="106" y="483" width="40" height="40"/><rect id="rect96572" serif:id="rect9657" x="665" y="397" width="40" height="40"/><rect id="rect96912" serif:id="rect9691" x="665" y="311" width="40" height="40"/><rect id="rect97212" serif:id="rect9721" x="665" y="225" width="40" height="40"/><rect id="rect97532" serif:id="rect9753" x="665" y="139" width="40" height="40"/><rect id="rect9761" x="278" y="483" width="40" height="40"/><rect id="rect9763" x="536" y="440" width="40" height="40"/><rect id="rect9765" x="321" y="397" width="40" height="40"/><rect id="rect9767" x="579" y="354" width="40" height="40"/><rect id="rect9769" x="106" y="354" width="40" height="40"/><rect id="rect9771" x="364" y="311" width="40" height="40"/><rect id="rect9773" x="622" y="268" width="40" height="40"/><rect id="rect9775" x="149" y="268" width="40" height="40"/><rect id="rect9777" x="407" y="225" width="40" height="40"/><rect id="rect9779" x="192" y="182" width="40" height="40"/><rect id="rect9783" x="708" y="96" width="40" height="40"/><rect id="rect9787" x="493" y="53" width="40" height="40"/><rect id="rect9789" x="20" y="526" width="40" height="40"/><rect id="rect9791" x="708" y="526" width="40" height="40"/><rect id="rect9793" x="665" y="526" width="40" height="40"/><rect id="rect9795" x="622" y="526" width="40" height="40"/><rect id="rect9797" x="579" y="526" width="40" height="40"/><rect id="rect9799" x="536" y="526" width="40" height="40"/><rect id="rect9801" x="493" y="526" width="40" height="40"/><rect id="rect9803" x="450" y="526" width="40" height="40"/><rect id="rect9805" x="407" y="526" width="40" height="40"/><rect id="rect9807" x="364" y="526" width="40" height="40"/><rect id="rect9809" x="321" y="526" width="40" height="40"/><rect id="rect9811" x="278" y="526" width="40" height="40"/><rect id="rect9813" x="235" y="526" width="40" height="40"/><rect id="rect9815" x="192" y="526" width="40" height="40"/><rect id="rect9817" x="149" y="526" width="40" height="40"/><rect id="rect9819" x="106" y="526" width="40" height="40"/><rect id="rect9821" x="63" y="526" width="40" height="40"/></g><g><rect x="192" y="96" width="48" height="83" style="fill:#fff;"/><rect x="240" y="96" width="48" height="83" style="fill:#bfbf00;"/><rect x="288" y="96" width="48" height="83" style="fill:#00bfbf;"/><rect x="336" y="96" width="48" height="83" style="fill:#00bf00;"/><rect x="384" y="96" width="48" height="83" style="fill:#bf00bf;"/><rect x="432" y="96" width="48" height="83" style="fill:#bf0000;"/><rect x="480" y="96" width="48" height="83" style="fill:#0000bf;"/><rect x="528" y="96" width="48" height="83"/></g></svg>