<?xml version="1.0" encoding="UTF-8" standalone="no"?><!DOCTYPE svg PUBLIC "-//W3C//DTD SVG 1.1//EN" "http://www.w3.org/Graphics/SVG/1.1/DTD/svg11.dtd"><svg width="1024" height="576" version="1.1" xmlns="http://www.w3.org/2000/svg" xmlns:xlink="http://www.w3.org/1999/xlink" xml:space="preserve" xmlns:serif="http://www.serif.com/" style="fill-rule:evenodd;clip-rule:evenodd;stroke-linejoin:round;stroke-miterlimit:2;"><g id="g9394"><rect id="rect9392" x="-0" y="-0" width="1024" height="576" style="fill:#bfbfbf;"/><g id="g4178"><g id="g4138"><g id="g3817"><rect id="rect3717" x="191" y="-0" width="40" height="7"/><rect id="rect3801" x="879" y="-0" width="40" height="7"/><rect id="rect3803" x="793" y="-0" width="40" height="7"/><rect id="rect3805" x="707" y="-0" width="40" height="7"/><rect id="rect3807" x="621" y="-0" width="40" height="7"/><rect id="rect3809" x="535" y="-0" width="40" height="7"/><rect id="rect3811" x="449" y="-0" width="40" height="7"/><rect id="rect3813" x="363" y="-0" width="40" height="7"/><rect id="rect3815" x="277" y="-0" width="40" height="7"/><rect id="rect37171" serif:id="rect3717" x="19" y="-0" width="40" height="7"/><rect id="rect38151" serif:id="rect3815" x="105" y="-0" width="40" height="7"/><rect id="rect37172" serif:id="rect3717" x="965" y="-0" width="40" height="7"/></g><g id="g38171" serif:id="g3817"><rect id="rect37173" serif:id="rect3717" x="191" y="569" width="40" height="7"/><rect id="rect38011" serif:id="rect3801" x="879" y="569" width="40" height="7"/><rect id="rect38031" serif:id="rect3803" x="793" y="569" width="40" height="7"/><rect id="rect38051" serif:id="rect3805" x="707" y="569" width="40" height="7"/><rect id="rect38071" serif:id="rect3807" x="621" y="569" width="40" height="7"/><rect id="rect38091" serif:id="rect3809" x="535" y="569" width="40" height="7"/><rect id="rect38111" serif:id="rect3811" x="449" y="569" width="40" height="7"/><rect id="rect38131" serif:id="rect3813" x="363" y="569" width="40" height="7"/><rect id="rect38152" serif:id="rect3815" x="277" y="569" width="40" height="7"/><rect id="rect37174" serif:id="rect3717" x="19" y="569" width="40" height="7"/><rect id="rect38153" serif:id="rect3815" x="105" y="569" width="40" height="7"/><rect id="rect37175" serif:id="rect3717" x="965" y="569" width="40" height="7"/></g></g><g id="g4160"><g id="g3876"><rect id="rect3551" x="-1" y="10" width="17" height="40"/><rect id="rect3864" x="-1" y="526" width="17" height="40"/><rect id="rect3866" x="-1" y="440" width="17" height="40"/><rect id="rect3868" x="-1" y="354" width="17" height="40"/><rect id="rect3870" x="-1" y="268" width="17" height="40"/><rect id="rect3872" x="-1" y="182" width="17" height="40"/><rect id="rect3874" x="-1" y="96" width="17" height="40"/></g><g id="g3885"><rect id="rect3887" x="1008" y="10" width="17" height="40"/><rect id="rect3889" x="1008" y="526" width="17" height="40"/><rect id="rect3891" x="1008" y="440" width="17" height="40"/><rect id="rect3893" x="1008" y="354" width="17" height="40"/><rect id="rect3895" x="1008" y="268" width="17" height="40"/><rect id="rect3897" x="1008" y="182" width="17" height="40"/><rect id="rect3899" x="1008" y="96" width="17" height="40"/></g></g></g></g><g id="g11308"><rect id="rect9441" x="148" y="10" width="40" height="40"/><rect id="rect9443" x="836" y="10" width="40" height="40"/><rect id="rect9445" x="793" y="10" width="40" height="40"/><rect id="rect9447" x="750" y="10" width="40" height="40"/><rect id="rect9449" x="707" y="10" width="40" height="40"/><rect id="rect9451" x="664" y="10" width="40" height="40"/><rect id="rect9453" x="621" y="10" width="40" height="40"/><rect id="rect9455" x="578" y="10" width="40" height="40"/><rect id="rect9457" x="535" y="10" width="40" height="40"/><rect id="rect9459" x="492" y="10" width="40" height="40"/><rect id="rect9461" x="449" y="10" width="40" height="40"/><rect id="rect9463" x="406" y="10" width="40" height="40"/><rect id="rect9465" x="363" y="10" width="40" height="40"/><rect id="rect9467" x="320" y="10" width="40" height="40"/><rect id="rect9469" x="277" y="10" width="40" height="40"/><rect id="rect9471" x="234" y="10" width="40" height="40"/><rect id="rect9473" x="191" y="10" width="40" height="40"/><rect id="rect9475" x="578" y="53" width="40" height="40"/><rect id="rect9477" x="836" y="483" width="40" height="40"/><rect id="rect9479" x="363" y="483" width="40" height="40"/><rect id="rect9483" x="148" y="440" width="40" height="40"/><rect id="rect9487" x="664" y="354" width="40" height="40"/><rect id="rect9489" x="449" y="311" width="40" height="40"/><rect id="rect9491" x="707" y="268" width="40" height="40"/><rect id="rect9493" x="234" y="268" width="40" height="40"/><rect id="rect9495" x="492" y="225" width="40" height="40"/><rect id="rect9497" x="750" y="182" width="40" height="40"/><rect id="rect9499" x="277" y="182" width="40" height="40"/><rect id="rect9505" x="535" y="53" width="40" height="40"/><rect id="rect9507" x="320" y="483" width="40" height="40"/><rect id="rect9511" x="836" y="397" width="40" height="40"/><rect id="rect9515" x="621" y="354" width="40" height="40"/><rect id="rect9517" x="148" y="354" width="40" height="40"/><rect id="rect9519" x="406" y="311" width="40" height="40"/><rect id="rect9521" x="664" y="268" width="40" height="40"/><rect id="rect9523" x="449" y="225" width="40" height="40"/><rect id="rect9525" x="707" y="182" width="40" height="40"/><rect id="rect9527" x="234" y="182" width="40" height="40"/><rect id="rect9531" x="277" y="96" width="40" height="40"/><rect id="rect9533" x="492" y="53" width="40" height="40"/><rect id="rect9535" x="277" y="483" width="40" height="40"/><rect id="rect9541" x="578" y="354" width="40" height="40"/><rect id="rect9543" x="836" y="311" width="40" height="40"/><rect id="rect9545" x="363" y="311" width="40" height="40"/><rect id="rect9547" x="621" y="268" width="40" height="40"/><rect id="rect9549" x="148" y="268" width="40" height="40"/><rect id="rect9551" x="406" y="225" width="40" height="40"/><rect id="rect9553" x="664" y="182" width="40" height="40"/><rect id="rect9557" x="707" y="96" width="40" height="40"/><rect id="rect9559" x="449" y="53" width="40" height="40"/><rect id="rect9561" x="707" y="483" width="40" height="40"/><rect id="rect9565" x="750" y="397" width="40" height="40"/><rect id="rect9567" x="277" y="397" width="40" height="40"/><rect id="rect9569" x="535" y="354" width="40" height="40"/><rect id="rect9571" x="320" y="311" width="40" height="40"/><rect id="rect9573" x="578" y="268" width="40" height="40"/><rect id="rect9575" x="836" y="225" width="40" height="40"/><rect id="rect9577" x="363" y="225" width="40" height="40"/><rect id="rect9579" x="621" y="182" width="40" height="40"/><rect id="rect9581" x="148" y="182" width="40" height="40"/><rect id="rect9587" x="406" y="53" width="40" height="40"/><rect id="rect9589" x="664" y="483" width="40" height="40"/><rect id="rect9593" x="707" y="397" width="40" height="40"/><rect id="rect9595" x="234" y="397" width="40" height="40"/><rect id="rect9597" x="492" y="354" width="40" height="40"/><rect id="rect9599" x="750" y="311" width="40" height="40"/><rect id="rect9601" x="277" y="311" width="40" height="40"/><rect id="rect9603" x="535" y="268" width="40" height="40"/><rect id="rect9605" x="320" y="225" width="40" height="40"/><rect id="rect9607" x="578" y="182" width="40" height="40"/><rect id="rect9609" x="836" y="139" width="40" height="40"/><rect id="rect9615" x="148" y="96" width="40" height="40"/><rect id="rect9617" x="363" y="53" width="40" height="40"/><rect id="rect9619" x="621" y="483" width="40" height="40"/><rect id="rect9621" x="148" y="483" width="40" height="40"/><rect id="rect9627" x="449" y="354" width="40" height="40"/><rect id="rect9629" x="707" y="311" width="40" height="40"/><rect id="rect9631" x="234" y="311" width="40" height="40"/><rect id="rect9633" x="492" y="268" width="40" height="40"/><rect id="rect9635" x="750" y="225" width="40" height="40"/><rect id="rect9637" x="277" y="225" width="40" height="40"/><rect id="rect9639" x="535" y="182" width="40" height="40"/><rect id="rect9645" x="836" y="53" width="40" height="40"/><rect id="rect9647" x="320" y="53" width="40" height="40"/><rect id="rect9649" x="578" y="483" width="40" height="40"/><rect id="rect9651" x="836" y="440" width="40" height="40"/><rect id="rect9657" x="148" y="397" width="40" height="40"/><rect id="rect9659" x="406" y="354" width="40" height="40"/><rect id="rect9661" x="664" y="311" width="40" height="40"/><rect id="rect9663" x="449" y="268" width="40" height="40"/><rect id="rect9665" x="707" y="225" width="40" height="40"/><rect id="rect9667" x="234" y="225" width="40" height="40"/><rect id="rect9669" x="492" y="182" width="40" height="40"/><rect id="rect9671" x="750" y="139" width="40" height="40"/><rect id="rect9673" x="277" y="139" width="40" height="40"/><rect id="rect9677" x="277" y="53" width="40" height="40"/><rect id="rect96771" serif:id="rect9677" x="234" y="53" width="40" height="40"/><rect id="rect96772" serif:id="rect9677" x="234" y="96" width="40" height="40"/><rect id="rect96773" serif:id="rect9677" x="750" y="53" width="40" height="40"/><rect id="rect96774" serif:id="rect9677" x="750" y="96" width="40" height="40"/><rect id="rect96775" serif:id="rect9677" x="793" y="53" width="40" height="40"/><rect id="rect96776" serif:id="rect9677" x="277" y="53" width="40" height="40"/><rect id="rect9679" x="535" y="483" width="40" height="40"/><rect id="rect9685" x="836" y="354" width="40" height="40"/><rect id="rect9687" x="363" y="354" width="40" height="40"/><rect id="rect9689" x="621" y="311" width="40" height="40"/><rect id="rect9691" x="148" y="311" width="40" height="40"/><rect id="rect9693" x="406" y="268" width="40" height="40"/><rect id="rect9695" x="664" y="225" width="40" height="40"/><rect id="rect9697" x="449" y="182" width="40" height="40"/><rect id="rect9699" x="707" y="139" width="40" height="40"/><rect id="rect9701" x="234" y="139" width="40" height="40"/><rect id="rect9705" x="492" y="483" width="40" height="40"/><rect id="rect9707" x="277" y="440" width="40" height="40"/><rect id="rect9711" x="320" y="354" width="40" height="40"/><rect id="rect94871" serif:id="rect9487" x="664" y="397" width="40" height="40"/><rect id="rect95151" serif:id="rect9515" x="621" y="397" width="40" height="40"/><rect id="rect95411" serif:id="rect9541" x="578" y="397" width="40" height="40"/><rect id="rect95691" serif:id="rect9569" x="535" y="397" width="40" height="40"/><rect id="rect95971" serif:id="rect9597" x="492" y="397" width="40" height="40"/><rect id="rect96271" serif:id="rect9627" x="449" y="397" width="40" height="40"/><rect id="rect96591" serif:id="rect9659" x="406" y="397" width="40" height="40"/><rect id="rect96871" serif:id="rect9687" x="363" y="397" width="40" height="40"/><rect id="rect97111" serif:id="rect9711" x="320" y="397" width="40" height="40"/><rect id="rect94872" serif:id="rect9487" x="664" y="440" width="40" height="40"/><rect id="rect95152" serif:id="rect9515" x="621" y="440" width="40" height="40"/><rect id="rect95412" serif:id="rect9541" x="578" y="440" width="40" height="40"/><rect id="rect95692" serif:id="rect9569" x="535" y="440" width="40" height="40"/><rect id="rect95972" serif:id="rect9597" x="492" y="440" width="40" height="40"/><rect id="rect96272" serif:id="rect9627" x="449" y="440" width="40" height="40"/><rect id="rect96592" serif:id="rect9659" x="406" y="440" width="40" height="40"/><rect id="rect96872" serif:id="rect9687" x="363" y="440" width="40" height="40"/><rect id="rect97112" serif:id="rect9711" x="320" y="440" width="40" height="40"/><rect id="rect9713" x="578" y="311" width="40" height="40"/><rect id="rect9715" x="836" y="268" width="40" height="40"/><rect id="rect9717" x="363" y="268" width="40" height="40"/><rect id="rect9719" x="621" y="225" width="40" height="40"/><rect id="rect9721" x="148" y="225" width="40" height="40"/><rect id="rect9723" x="406" y="182" width="40" height="40"/><rect id="rect9729" x="707" y="53" width="40" height="40"/><rect id="rect9731" x="449" y="483" width="40" height="40"/><rect id="rect9733" x="707" y="440" width="40" height="40"/><rect id="rect9737" x="750" y="354" width="40" height="40"/><rect id="rect9739" x="277" y="354" width="40" height="40"/><rect id="rect9741" x="535" y="311" width="40" height="40"/><rect id="rect9743" x="320" y="268" width="40" height="40"/><rect id="rect9745" x="578" y="225" width="40" height="40"/><rect id="rect9747" x="836" y="182" width="40" height="40"/><rect id="rect9749" x="363" y="182" width="40" height="40"/><rect id="rect9753" x="148" y="139" width="40" height="40"/><rect id="rect9757" x="664" y="53" width="40" height="40"/><rect id="rect9759" x="148" y="53" width="40" height="40"/><rect id="rect94831" serif:id="rect9483" x="191" y="440" width="40" height="40"/><rect id="rect95171" serif:id="rect9517" x="191" y="354" width="40" height="40"/><rect id="rect95491" serif:id="rect9549" x="191" y="268" width="40" height="40"/><rect id="rect95811" serif:id="rect9581" x="191" y="182" width="40" height="40"/><rect id="rect96151" serif:id="rect9615" x="191" y="96" width="40" height="40"/><rect id="rect96211" serif:id="rect9621" x="191" y="483" width="40" height="40"/><rect id="rect96571" serif:id="rect9657" x="191" y="397" width="40" height="40"/><rect id="rect96911" serif:id="rect9691" x="191" y="311" width="40" height="40"/><rect id="rect97211" serif:id="rect9721" x="191" y="225" width="40" height="40"/><rect id="rect97531" serif:id="rect9753" x="191" y="139" width="40" height="40"/><rect id="rect97591" serif:id="rect9759" x="191" y="53" width="40" height="40"/><rect id="rect94832" serif:id="rect9483" x="793" y="440" width="40" height="40"/><rect id="rect95172" serif:id="rect9517" x="793" y="354" width="40" height="40"/><rect id="rect95492" serif:id="rect9549" x="793" y="268" width="40" height="40"/><rect id="rect95812" serif:id="rect9581" x="793" y="182" width="40" height="40"/><rect id="rect96152" serif:id="rect9615" x="793" y="96" width="40" height="40"/><rect id="rect96212" serif:id="rect9621" x="793" y="483" width="40" height="40"/><rect id="rect94833" serif:id="rect9483" x="750" y="440" width="40" height="40"/><rect id="rect96213" serif:id="rect9621" x="750" y="483" width="40" height="40"/><rect id="rect94834" serif:id="rect9483" x="234" y="440" width="40" height="40"/><rect id="rect96214" serif:id="rect9621" x="234" y="483" width="40" height="40"/><rect id="rect96572" serif:id="rect9657" x="793" y="397" width="40" height="40"/><rect id="rect96912" serif:id="rect9691" x="793" y="311" width="40" height="40"/><rect id="rect97212" serif:id="rect9721" x="793" y="225" width="40" height="40"/><rect id="rect97532" serif:id="rect9753" x="793" y="139" width="40" height="40"/><rect id="rect9761" x="406" y="483" width="40" height="40"/><rect id="rect9767" x="707" y="354" width="40" height="40"/><rect id="rect9769" x="234" y="354" width="40" height="40"/><rect id="rect9771" x="492" y="311" width="40" height="40"/><rect id="rect9773" x="750" y="268" width="40" height="40"/><rect id="rect9775" x="277" y="268" width="40" height="40"/><rect id="rect9777" x="535" y="225" width="40" height="40"/><rect id="rect9779" x="320" y="182" width="40" height="40"/><rect id="rect9783" x="836" y="96" width="40" height="40"/><rect id="rect9787" x="621" y="53" width="40" height="40"/><rect id="rect9789" x="148" y="526" width="40" height="40"/><rect id="rect9791" x="836" y="526" width="40" height="40"/><rect id="rect9793" x="793" y="526" width="40" height="40"/><rect id="rect9795" x="750" y="526" width="40" height="40"/><rect id="rect9797" x="707" y="526" width="40" height="40"/><rect id="rect9799" x="664" y="526" width="40" height="40"/><rect id="rect9801" x="621" y="526" width="40" height="40"/><rect id="rect9803" x="578" y="526" width="40" height="40"/><rect id="rect9805" x="535" y="526" width="40" height="40"/><rect id="rect9807" x="492" y="526" width="40" height="40"/><rect id="rect9809" x="449" y="526" width="40" height="40"/><rect id="rect9811" x="406" y="526" width="40" height="40"/><rect id="rect9813" x="363" y="526" width="40" height="40"/><rect id="rect9815" x="320" y="526" width="40" height="40"/><rect id="rect9817" x="277" y="526" width="40" height="40"/><rect id="rect9819" x="234" y="526" width="40" height="40"/><rect id="rect9821" x="191" y="526" width="40" height="40"/><rect id="rect94411" serif:id="rect9441" x="19" y="10" width="40" height="40"/><rect id="rect94711" serif:id="rect9471" x="105" y="10" width="40" height="40"/><rect id="rect94731" serif:id="rect9473" x="62" y="10" width="40" height="40"/><rect id="rect94835" serif:id="rect9483" x="19" y="440" width="40" height="40"/><rect id="rect94931" serif:id="rect9493" x="105" y="268" width="40" height="40"/><rect id="rect95173" serif:id="rect9517" x="19" y="354" width="40" height="40"/><rect id="rect95271" serif:id="rect9527" x="105" y="182" width="40" height="40"/><rect id="rect95493" serif:id="rect9549" x="19" y="268" width="40" height="40"/><rect id="rect95813" serif:id="rect9581" x="19" y="182" width="40" height="40"/><rect id="rect95951" serif:id="rect9595" x="105" y="397" width="40" height="40"/><rect id="rect96153" serif:id="rect9615" x="19" y="96" width="40" height="40"/><rect id="rect96215" serif:id="rect9621" x="19" y="483" width="40" height="40"/><rect id="rect96311" serif:id="rect9631" x="105" y="311" width="40" height="40"/><rect id="rect96573" serif:id="rect9657" x="19" y="397" width="40" height="40"/><rect id="rect96671" serif:id="rect9667" x="105" y="225" width="40" height="40"/><rect id="rect96777" serif:id="rect9677" x="105" y="53" width="40" height="40"/><rect id="rect96778" serif:id="rect9677" x="105" y="96" width="40" height="40"/><rect id="rect96913" serif:id="rect9691" x="19" y="311" width="40" height="40"/><rect id="rect97011" serif:id="rect9701" x="105" y="139" width="40" height="40"/><rect id="rect97213" serif:id="rect9721" x="19" y="225" width="40" height="40"/><rect id="rect97533" serif:id="rect9753" x="19" y="139" width="40" height="40"/><rect id="rect97592" serif:id="rect9759" x="19" y="53" width="40" height="40"/><rect id="rect94836" serif:id="rect9483" x="62" y="440" width="40" height="40"/><rect id="rect95174" serif:id="rect9517" x="62" y="354" width="40" height="40"/><rect id="rect95494" serif:id="rect9549" x="62" y="268" width="40" height="40"/><rect id="rect95814" serif:id="rect9581" x="62" y="182" width="40" height="40"/><rect id="rect96154" serif:id="rect9615" x="62" y="96" width="40" height="40"/><rect id="rect96216" serif:id="rect9621" x="62" y="483" width="40" height="40"/><rect id="rect96574" serif:id="rect9657" x="62" y="397" width="40" height="40"/><rect id="rect96914" serif:id="rect9691" x="62" y="311" width="40" height="40"/><rect id="rect97214" serif:id="rect9721" x="62" y="225" width="40" height="40"/><rect id="rect97534" serif:id="rect9753" x="62" y="139" width="40" height="40"/><rect id="rect97593" serif:id="rect9759" x="62" y="53" width="40" height="40"/><rect id="rect94837" serif:id="rect9483" x="105" y="440" width="40" height="40"/><rect id="rect96217" serif:id="rect9621" x="105" y="483" width="40" height="40"/><rect id="rect97691" serif:id="rect9769" x="105" y="354" width="40" height="40"/><rect id="rect97891" serif:id="rect9789" x="19" y="526" width="40" height="40"/><rect id="rect98191" serif:id="rect9819" x="105" y="526" width="40" height="40"/><rect id="rect98211" serif:id="rect9821" x="62" y="526" width="40" height="40"/><rect id="rect94412" serif:id="rect9441" x="879" y="10" width="40" height="40"/><rect id="rect94712" serif:id="rect9471" x="965" y="10" width="40" height="40"/><rect id="rect94732" serif:id="rect9473" x="922" y="10" width="40" height="40"/><rect id="rect94838" serif:id="rect9483" x="879" y="440" width="40" height="40"/><rect id="rect94932" serif:id="rect9493" x="965" y="268" width="40" height="40"/><rect id="rect95175" serif:id="rect9517" x="879" y="354" width="40" height="40"/><rect id="rect95272" serif:id="rect9527" x="965" y="182" width="40" height="40"/><rect id="rect95495" serif:id="rect9549" x="879" y="268" width="40" height="40"/><rect id="rect95815" serif:id="rect9581" x="879" y="182" width="40" height="40"/><rect id="rect95952" serif:id="rect9595" x="965" y="397" width="40" height="40"/><rect id="rect96155" serif:id="rect9615" x="879" y="96" width="40" height="40"/><rect id="rect96218" serif:id="rect9621" x="879" y="483" width="40" height="40"/><rect id="rect96312" serif:id="rect9631" x="965" y="311" width="40" height="40"/><rect id="rect96575" serif:id="rect9657" x="879" y="397" width="40" height="40"/><rect id="rect96672" serif:id="rect9667" x="965" y="225" width="40" height="40"/><rect id="rect96779" serif:id="rect9677" x="965" y="53" width="40" height="40"/><rect id="rect967710" serif:id="rect9677" x="965" y="96" width="40" height="40"/><rect id="rect96915" serif:id="rect9691" x="879" y="311" width="40" height="40"/><rect id="rect97012" serif:id="rect9701" x="965" y="139" width="40" height="40"/><rect id="rect97215" serif:id="rect9721" x="879" y="225" width="40" height="40"/><rect id="rect97535" serif:id="rect9753" x="879" y="139" width="40" height="40"/><rect id="rect97594" serif:id="rect9759" x="879" y="53" width="40" height="40"/><rect id="rect94839" serif:id="rect9483" x="922" y="440" width="40" height="40"/><rect id="rect95176" serif:id="rect9517" x="922" y="354" width="40" height="40"/><rect id="rect95496" serif:id="rect9549" x="922" y="268" width="40" height="40"/><rect id="rect95816" serif:id="rect9581" x="922" y="182" width="40" height="40"/><rect id="rect96156" serif:id="rect9615" x="922" y="96" width="40" height="40"/><rect id="rect96219" serif:id="rect9621" x="922" y="483" width="40" height="40"/><rect id="rect96576" serif:id="rect9657" x="922" y="397" width="40" height="40"/><rect id="rect96916" serif:id="rect9691" x="922" y="311" width="40" height="40"/><rect id="rect97216" serif:id="rect9721" x="922" y="225" width="40" height="40"/><rect id="rect97536" serif:id="rect9753" x="922" y="139" width="40" height="40"/><rect id="rect97595" serif:id="rect9759" x="922" y="53" width="40" height="40"/><rect id="rect948310" serif:id="rect9483" x="965" y="440" width="40" height="40"/><rect id="rect962110" serif:id="rect9621" x="965" y="483" width="40" height="40"/><rect id="rect97692" serif:id="rect9769" x="965" y="354" width="40" height="40"/><rect id="rect97892" serif:id="rect9789" x="879" y="526" width="40" height="40"/><rect id="rect98192" serif:id="rect9819" x="965" y="526" width="40" height="40"/><rect id="rect98212" serif:id="rect9821" x="922" y="526" width="40" height="40"/></g><g><rect x="320" y="96" width="48" height="83" style="fill:#fff;"/><rect x="368" y="96" width="48" height="83" style="fill:#ff0;"/><rect x="416" y="96" width="48" height="83" style="fill:#0ff;"/><rect x="464" y="96" width="48" height="83" style="fill:#0f0;"/><rect x="512" y="96" width="48" height="83" style="fill:#f0f;"/><rect x="560" y="96" width="48" height="83" style="fill:#f00;"/><rect x="608" y="96" width="48" height="83" style="fill:#00f;"/><rect x="656" y="96" width="48" height="83"/></g></svg>