<?xml version="1.0" encoding="utf-8"?>
<svg xmlns="http://www.w3.org/2000/svg" version="1.1" width="672" height="504">
    <rect width="97" height="337" x="0" y="0" fill="#bfbfbf" />
    <rect width="97" height="337" x="96" y="0" fill="#bfbf00" />
    <rect width="97" height="337" x="192" y="0" fill="#00bfbe" />
    <rect width="97" height="337" x="288" y="0" fill="#00bf00" />
    <rect width="97" height="337" x="384" y="0" fill="#c000c0" />
    <rect width="97" height="337" x="480" y="0" fill="#bf0001" />
    <rect width="97" height="337" x="576" y="0" fill="#0000bf" />


    <rect width="97" height="43" x="0" y="336" fill="#0000bf" />
    <rect width="97" height="43" x="96" y="336" fill="#141414" />
    <rect width="97" height="43" x="192" y="336" fill="#c000c0" />
    <rect width="97" height="43" x="288" y="336" fill="#141414" />
    <rect width="97" height="43" x="384" y="336" fill="#00bfbe" />
    <rect width="97" height="43" x="480" y="336" fill="#141414" />
    <rect width="97" height="43" x="576" y="336" fill="#bfbfbf" />


    <rect width="121" height="126" x="0" y="378" fill="#0e214c" />
    <rect width="121" height="126" x="120" y="378" fill="#ffffff" />
    <rect width="121" height="126" x="240" y="378" fill="#410077" />
    <rect width="121" height="126" x="360" y="378" fill="#141414" />

    <rect width="33" height="126" x="480" y="378" fill="#000000" />
    <rect width="33" height="126" x="512" y="378" fill="#141414" />
    <rect width="33" height="126" x="544" y="378" fill="#1d1d1d" />

    <rect width="97" height="126" x="576" y="378" fill="#141414" />
</svg>
